<?xml version="1.0" encoding="UTF-8"?>
<svg id="Layer_1" data-name="Layer 1" xmlns="http://www.w3.org/2000/svg" version="1.1" viewBox="0 0 126.2 104.8">
  <defs>
    <style>
      .cls-1 {
        fill: #333;
      }

      .cls-1, .cls-2, .cls-3, .cls-4, .cls-5 {
        stroke-width: 0px;
      }

      .cls-2 {
        fill: #1189cb;
      }

      .cls-3 {
        fill: #0172bd;
      }

      .cls-4 {
        fill: #29abe2;
      }

      .cls-5 {
        fill: #fff;
      }
    </style>
  </defs>
  <path class="cls-3" d="M10.9,111.9c6.1-12.1,12.2-23.7,18.3-35.3,10.2-19.4,20.4-38.9,30.9-58.8.8.5,1.9,1.5,1.7,2.1-.7,1.9-1.9,3.6-3.2,5.6-1,1.1-1.8,1.9-2.3,2.9-4.6,8.9-9.2,17.9-13.8,26.9-9.4,18.2-18.9,36.4-28.3,54.6-.6,1.2-.2,3-.3,4.8,0,.2,0,.7,0,.7-2.5.5-3.5-.5-3-3.5h0Z"/>
  <path class="cls-3" d="M72.8,17.5c4.7,10.7,9.3,21.4,14.1,32,9.4,20.9,18.9,41.7,28.7,62.7,0,1.1-.3,2.1-1.2,2.7-.6-1-.6-1.7-.9-2.3-12.1-26.8-24.2-53.6-36.3-80.4-.7-1.5-2.2-2.6-3.4-4.1,0-.2,0-.7,0-1.1-.9-2.3-1.9-4.3-2.9-6.3-1-2-1-3.5,1.9-3.2h0Z"/>
  <path class="cls-2" d="M73.8,28.3c1.1,1.3,2.7,2.4,3.4,3.9,12.2,26.8,24.3,53.6,36.3,80.4.3.6.3,1.3.4,2.3-.4.4-.9.4-1.7.2-.4-.2-.4-.7-.4-1-8-18.2-16.1-36-24-53.9-4.7-10.6-9.3-21.2-14-31.8h0Z"/>
  <path class="cls-5" d="M111.8,114.4s0,.4,0,.7c-32.3.3-64.7.3-97.5.4s-.4-.4-.2-.7.7-.4,1.1-.4c32.5,0,64.5,0,96.5.1Z"/>
  <path class="cls-1" d="M73.2,17.4c-3.3-.2-3.3,1.3-2.3,3.3,1,2,1.9,3.9,2.4,6.3-5.1.3-9.8.3-14.5,0,0-.7,0-1.2,0-1.6,1-1.8,2.2-3.5,2.9-5.4.2-.6-.9-1.7-1.7-2.5-1.7.1-3.1.2-5.3.3,0-6.7,0-13.2,0-19.8,0-9.9-1.1-8.6,8.8-8.7,4,0,8-.2,11.9.1,1.2,0,3.1,1.7,3.1,2.6.3,7.4.2,14.9.2,22.4v2.9c-1.9,0-3.5,0-5.5,0h0Z"/>
  <path class="cls-2" d="M58.6,25.5c.3.3.3.7.2,1.8-1.6,3.6-3.1,6.5-4.7,9.4-11.9,22.9-23.9,45.8-35.7,68.8-1.4,2.8-2.4,5.8-3.5,8.7,0,0-.4.2-.7.2-.2-1.5-.6-3.3,0-4.5,9.3-18.3,18.8-36.4,28.3-54.6,4.6-8.9,9.2-17.9,13.8-26.9.5-1,1.3-1.9,2.3-2.9h0Z"/>
  <path class="cls-4" d="M15.3,114.3c.7-3,1.6-6,3-8.7,11.9-23,23.8-45.9,35.7-68.8,1.5-2.9,3.1-5.8,4.7-9.1,4.7-.3,9.4-.3,14.5-.3.5,0,.5.5.5.7,4.7,10.8,9.3,21.5,14,32.1,8,17.9,16,35.7,24,53.9-32,.4-64,.3-96.5.3h0Z"/>
</svg>