<?xml version="1.0" encoding="UTF-8"?>
<svg id="Layer_1" data-name="Layer 1" xmlns="http://www.w3.org/2000/svg" viewBox="0 0 126.19 104.78">
  <defs>
    <style>
      .cls-1 {
        fill: #333;
      }

      .cls-1, .cls-2, .cls-3, .cls-4, .cls-5 {
        stroke-width: 0px;
      }

      .cls-2 {
        fill: #1189cb;
      }

      .cls-3 {
        fill: #0172bd;
      }

      .cls-4 {
        fill: #29abe2;
      }

      .cls-5 {
        fill: #fff;
      }
    </style>
  </defs>
  <path class="cls-3" d="M122.57,104.65c-12.11-6.12-23.7-12.26-35.32-18.36-19.43-10.22-38.87-20.41-58.71-30.95.46-.83,1.54-1.92,2.14-1.7,1.9.7,3.62,1.89,5.55,3.21,1.07.99,1.94,1.77,2.94,2.29,8.93,4.64,17.9,9.22,26.84,13.86,18.19,9.45,36.35,18.97,54.6,28.34,1.24.64,3.03.2,4.79.27.23,0,.68.04.68.04.5,2.5-.5,3.5-3.5,3Z"/>
  <path class="cls-3" d="M28.23,42.64c10.68-4.67,21.39-9.27,32.03-14.04C81.13,19.24,101.97,9.77,122.95,0c1.13-.01,2.13.32,2.74,1.16-1.03.64-1.73.64-2.32.91-26.82,12.04-53.64,24.08-80.41,36.23-1.5.68-2.6,2.21-4.13,3.38-.24.03-.71.04-1.09.02-2.35.94-4.32,1.89-6.29,2.85-2.03.99-3.46.96-3.23-1.9Z"/>
  <path class="cls-2" d="M39.07,41.65c1.29-1.14,2.39-2.67,3.89-3.35C69.73,26.15,96.55,14.11,123.37,2.07c.59-.26,1.29-.27,2.32-.41.38.44.38.88.16,1.69-.22.37-.66.38-1.03.39-18.22,8-36.05,16.02-53.92,23.96-10.59,4.71-21.22,9.3-31.84,13.94Z"/>
  <path class="cls-5" d="M125.19,3.74s.44-.02.66-.05c.22,32.32.22,64.68.22,97.5,0,.47-.45.43-.74.2-.29-.23-.44-.68-.37-1.15.13-32.48.18-64.49.23-96.5Z"/>
  <path class="cls-1" d="M28.16,42.2c-.17,3.3,1.26,3.33,3.3,2.34,1.97-.96,3.94-1.91,6.29-2.39.34,5.14.29,9.8-.07,14.48-.74-.03-1.16-.06-1.58-.1-1.79-1-3.51-2.19-5.41-2.89-.6-.22-1.68.87-2.5,1.69.12,1.7.21,3.08.34,5.32-6.68,0-13.22.03-19.77,0-9.85-.05-8.6,1.13-8.68-8.8-.03-3.98-.21-7.98.12-11.93.1-1.15,1.69-3.06,2.65-3.1,7.45-.27,14.91-.16,22.37-.16.8,0,1.6,0,2.86,0,0,1.9,0,3.5.07,5.54Z"/>
  <path class="cls-2" d="M36.23,56.86c.29-.29.71-.25,1.81-.18,3.6,1.58,6.51,3.14,9.43,4.67,22.91,11.96,45.81,23.94,68.76,35.83,2.76,1.43,5.76,2.37,8.66,3.53,0,0,.15.45.21.68-1.47.16-3.26.6-4.5-.04-18.24-9.36-36.4-18.88-54.6-28.34-8.93-4.64-17.9-9.21-26.84-13.86-1-.52-1.87-1.3-2.94-2.29Z"/>
  <path class="cls-4" d="M124.96,100.23c-2.97-.7-5.98-1.64-8.73-3.06-22.95-11.89-45.85-23.87-68.76-35.83-2.93-1.53-5.84-3.09-9.12-4.68-.32-4.71-.28-9.37-.24-14.49,0-.46.48-.47.71-.5,10.85-4.67,21.49-9.26,32.08-13.96,17.87-7.95,35.7-15.97,53.92-23.96.32,32,.26,64.01.14,96.49Z"/>
</svg>