<?xml version="1.0" encoding="UTF-8"?>
<svg id="Layer_1" data-name="Layer 1" xmlns="http://www.w3.org/2000/svg" version="1.1" viewBox="0 0 126.2 104.8">
  <defs>
    <style>
      .cls-1 {
        fill: #333;
      }

      .cls-1, .cls-2, .cls-3, .cls-4, .cls-5 {
        stroke-width: 0px;
      }

      .cls-2 {
        fill: #1189cb;
      }

      .cls-3 {
        fill: #0172bd;
      }

      .cls-4 {
        fill: #29abe2;
      }

      .cls-5 {
        fill: #fff;
      }
    </style>
  </defs>
  <path class="cls-3" d="M115.8-6.7c-6.2,12.1-12.5,23.6-18.6,35.2-10.4,19.3-20.7,38.7-31.4,58.5-.8-.5-1.9-1.6-1.7-2.2.7-1.9,1.9-3.6,3.3-5.5,1-1.1,1.8-1.9,2.3-2.9,4.7-8.9,9.4-17.8,14.1-26.7,9.6-18.1,19.3-36.2,28.8-54.4.7-1.2.2-3,.3-4.8,0-.2,0-.7,0-.7,2.5-.5,3.5.5,3,3.5h0Z"/>
  <path class="cls-3" d="M53.1,87.2c-4.6-10.7-9.1-21.5-13.8-32.1C30.1,34.1,20.8,13.2,11.2-7.9c0-1.1.3-2.1,1.2-2.7.6,1,.6,1.7.9,2.3,11.8,26.9,23.6,53.8,35.6,80.7.7,1.5,2.2,2.6,3.3,4.2,0,.2,0,.7,0,1.1.9,2.4,1.9,4.3,2.8,6.3,1,2,.9,3.5-1.9,3.2h0Z"/>
  <path class="cls-2" d="M52.2,76.3c-1.1-1.3-2.7-2.4-3.3-3.9C36.9,45.5,25.1,18.6,13.3-8.3c-.3-.6-.3-1.3-.4-2.3.4-.4.9-.4,1.7-.1.4.2.4.7.4,1,7.9,18.3,15.7,36.2,23.5,54.1,4.6,10.6,9.1,21.3,13.7,32h0Z"/>
  <path class="cls-5" d="M15-10.1s0-.4,0-.7c32.3,0,64.7.3,97.5.6.5,0,.4.5.2.7s-.7.4-1.2.4c-32.5-.4-64.5-.7-96.5-1Z"/>
  <path class="cls-1" d="M52.6,87.2c3.3.2,3.3-1.2,2.4-3.3-.9-2-1.9-4-2.3-6.3,5.1-.3,9.8-.2,14.5.2,0,.7,0,1.2-.1,1.6-1,1.8-2.2,3.5-2.9,5.4-.2.6.9,1.7,1.7,2.5,1.7-.1,3.1-.2,5.3-.3,0,6.7,0,13.2-.2,19.8-.1,9.8,1.1,8.6-8.9,8.6-4,0-8,.1-11.9-.2-1.1-.1-3-1.7-3.1-2.7-.2-7.5,0-14.9,0-22.4v-2.9c1.9,0,3.5,0,5.6,0h0Z"/>
  <path class="cls-2" d="M67.4,79.3c-.3-.3-.2-.7-.2-1.8,1.6-3.6,3.2-6.5,4.7-9.4C84.1,45.3,96.3,22.5,108.3-.4c1.5-2.7,2.4-5.7,3.6-8.6,0,0,.5-.1.7-.2.1,1.5.6,3.3,0,4.5-9.5,18.2-19.2,36.2-28.8,54.4-4.7,8.9-9.4,17.8-14.1,26.7-.5,1-1.3,1.9-2.3,2.9h0Z"/>
  <path class="cls-4" d="M111.4-9.1c-.7,3-1.7,6-3.1,8.7-12.1,22.9-24.2,45.7-36.4,68.5-1.6,2.9-3.1,5.8-4.8,9.1-4.7.3-9.4.2-14.5.1-.5,0-.5-.5-.5-.7-4.6-10.9-9.1-21.6-13.7-32.2C30.7,26.5,22.8,8.6,15-9.7c32,0,64,.3,96.5.6h0Z"/>
</svg>